<?xml version="1.0" standalone="no"?>
<!DOCTYPE svg PUBLIC "-//W3C//DTD SVG 20010904//EN"
 "http://www.w3.org/TR/2001/REC-SVG-20010904/DTD/svg10.dtd">
<svg version="1.0" xmlns="http://www.w3.org/2000/svg"
 width="432.000000pt" height="432.000000pt" viewBox="0 0 432.000000 432.000000"
 preserveAspectRatio="xMidYMid meet">
<metadata>
Created by potrace 1.14, written by Peter Selinger 2001-2017
</metadata>
<g transform="translate(0.000000,432.000000) scale(0.100000,-0.100000)"
fill="#000000" stroke="none">
<path d="M2462 4272 c-4 -1 -475 -3 -1047 -5 -1038 -2 -1040 -2 -1086 -23 -25
-12 -59 -39 -75 -60 l-29 -37 -3 -631 c-4 -681 -2 -713 46 -762 56 -56 72 -58
392 -61 162 -2 310 -3 327 -3 64 0 63 15 63 -703 0 -565 -2 -646 -15 -657 -13
-10 -27 -10 -78 3 -175 43 -204 44 -333 16 -246 -53 -414 -191 -495 -404 -69
-185 -51 -380 53 -559 48 -82 40 -73 144 -157 87 -71 160 -111 240 -130 27 -6
53 -16 58 -20 6 -5 60 -9 122 -9 116 0 195 18 312 71 187 86 335 284 367 492
12 79 12 99 -3 180 -15 82 -17 183 -16 933 2 627 5 847 14 864 18 34 57 17
120 -53 30 -34 95 -105 145 -158 49 -53 151 -164 225 -245 171 -190 332 -348
372 -368 48 -25 67 -20 123 31 28 27 65 60 81 74 16 14 45 47 64 73 35 47 59
73 325 352 77 81 141 153 143 160 2 8 8 14 13 14 5 0 19 17 33 38 38 60 70 90
97 88 l24 -1 -3 -645 c-2 -507 -5 -647 -15 -657 -10 -11 -23 -10 -67 3 -91 28
-318 21 -379 -11 -14 -7 -45 -18 -68 -24 -24 -7 -43 -17 -43 -23 0 -6 -2 -9
-5 -6 -7 7 -51 -31 -118 -99 -28 -29 -55 -53 -62 -53 -6 0 -24 -20 -40 -45
-16 -26 -35 -49 -42 -54 -8 -4 -16 -14 -17 -22 -2 -8 -6 -21 -9 -29 -16 -41
-47 -217 -47 -269 0 -33 11 -106 25 -163 20 -83 34 -116 71 -170 87 -128 215
-228 358 -280 78 -29 86 -30 216 -26 l135 4 117 57 c98 47 128 68 184 124 131
134 199 289 196 448 -2 50 -5 514 -8 1032 -5 937 -4 943 16 963 19 19 32 20
278 20 l259 0 40 29 c22 16 50 44 61 63 20 32 21 46 24 693 3 601 2 663 -14
690 -26 48 -77 94 -111 100 -30 6 -1639 13 -1655 7z"/>
</g>
</svg>
